<?xml version="1.0" standalone="no"?>
<!DOCTYPE svg PUBLIC "-//W3C//DTD SVG 20010904//EN"
 "http://www.w3.org/TR/2001/REC-SVG-20010904/DTD/svg10.dtd">
<svg version="1.0" xmlns="http://www.w3.org/2000/svg"
 width="1536.000000pt" height="1024.000000pt" viewBox="0 0 1536.000000 1024.000000"
 preserveAspectRatio="xMidYMid meet">

<g transform="translate(0.000000,1024.000000) scale(0.100000,-0.100000)"
fill="#000000" stroke="none">
<path d="M0 5120 l0 -5120 7680 0 7680 0 0 5120 0 5120 -7680 0 -7680 0 0
-5120z m3520 3923 c3 -45 8 -85 13 -89 4 -4 7 -3 7 3 0 6 16 18 36 28 41 19
76 10 113 -29 39 -41 58 -269 26 -296 -26 -22 -34 0 -41 123 -7 126 -16 147
-59 147 -13 0 -37 -12 -54 -26 l-31 -26 0 -109 c0 -94 -2 -110 -18 -118 -10
-5 -23 -7 -29 -3 -6 4 -12 91 -15 234 -6 231 -3 252 32 246 11 -3 16 -22 20
-85z m-1095 37 c0 -25 -2 -25 -95 -30 l-95 -5 0 -60 0 -60 70 -5 c68 -5 70 -6
73 -32 l3 -28 -74 0 -75 0 -7 -92 c-8 -120 -11 -128 -41 -128 l-24 0 1 221 c0
122 3 228 6 236 4 11 32 13 132 11 l126 -3 0 -25z m190 -165 c0 -115 4 -193
10 -197 6 -4 29 -8 51 -8 49 0 74 -21 54 -45 -19 -22 -263 -18 -267 5 -5 25
10 38 51 44 22 4 41 8 43 9 2 3 5 205 4 279 -1 36 -2 37 -42 40 -49 4 -71 27
-49 53 10 12 28 15 79 13 l66 -3 0 -190z m1718 154 c-2 -41 -165 -451 -180
-456 -25 -9 -22 38 6 113 142 377 143 379 165 371 6 -2 10 -15 9 -28z m-2634
-87 c-13 -17 -50 -52 -83 -78 l-59 -47 48 -41 c120 -102 141 -124 129 -142
-18 -29 -29 -26 -75 19 -24 23 -74 67 -111 97 -38 29 -68 59 -68 66 0 7 39 43
88 81 48 37 96 76 107 86 16 15 21 15 33 3 13 -13 12 -18 -9 -44z m2269 -42
c101 -78 105 -82 96 -103 -8 -21 -199 -167 -218 -167 -16 0 -21 27 -8 45 4 6
40 36 80 68 40 32 71 64 69 70 -2 7 -23 27 -48 45 -98 73 -103 78 -96 95 11
28 29 20 125 -53z m-961 16 l37 -34 6 -108 c3 -60 9 -115 13 -121 4 -7 3 -22
-3 -33 -12 -22 -59 -27 -78 -8 -9 9 -18 9 -37 0 -67 -31 -149 2 -161 63 -12
66 51 122 151 132 58 6 65 14 39 51 -18 26 -84 31 -104 7 -28 -34 -76 -4 -53
34 15 25 74 51 116 51 29 0 46 -8 74 -34z m328 20 c44 -19 61 -49 39 -70 -14
-15 -18 -14 -41 4 -36 28 -97 27 -117 -2 -14 -20 -14 -23 2 -33 9 -6 40 -16
67 -23 63 -16 105 -58 105 -106 0 -27 -8 -41 -40 -70 -36 -32 -46 -36 -93 -35
-76 1 -150 50 -119 81 9 9 23 8 65 -5 70 -22 88 -21 116 4 22 21 22 22 4 39
-10 9 -46 25 -81 35 -63 19 -102 50 -102 83 0 26 43 81 75 97 38 18 76 19 120
1z m6939 -22 c13 -5 16 -22 16 -85 l0 -78 35 15 c60 25 93 19 137 -26 52 -55
58 -74 58 -194 0 -113 -13 -152 -44 -127 -13 11 -16 34 -16 121 0 93 -3 111
-21 134 -15 20 -29 26 -57 26 -69 0 -83 -29 -91 -175 -5 -95 -8 -110 -24 -113
-10 -2 -25 2 -34 10 -14 11 -15 40 -10 241 4 155 9 233 17 243 14 16 13 16 34
8z m-1050 -29 c14 -14 16 -46 16 -215 l0 -199 66 -3 c70 -3 94 -18 81 -52 -6
-14 -27 -16 -155 -16 -157 0 -178 6 -170 47 3 14 15 19 61 21 l57 3 0 174 0
175 -55 0 c-43 0 -56 4 -64 19 -12 22 4 47 34 53 58 11 114 8 129 -7z m1986
-6 c0 -22 -36 -118 -77 -208 -13 -29 -26 -60 -28 -70 -2 -9 -14 -36 -26 -61
-12 -25 -32 -74 -45 -110 -16 -48 -27 -65 -41 -65 -14 0 -18 7 -16 33 1 35 11
64 103 292 23 58 49 123 57 145 18 50 31 65 54 65 13 0 19 -7 19 -21z m-2193
-5 c3 -9 2 -24 -4 -33 -8 -13 -32 -17 -122 -19 l-111 -3 0 -64 0 -65 79 0 c95
0 111 -5 111 -35 0 -29 -16 -35 -100 -35 -43 0 -71 -5 -78 -13 -6 -7 -13 -56
-14 -108 l-3 -94 -31 -3 -30 -3 2 243 c2 134 3 244 3 246 1 1 66 2 146 2 126
0 146 -2 152 -16z m-842 -55 c15 -23 -10 -58 -90 -124 -46 -38 -84 -74 -84
-80 0 -5 41 -43 90 -84 67 -56 89 -80 87 -95 -5 -37 -32 -28 -118 40 -47 37
-102 78 -122 92 -21 13 -38 32 -37 41 0 9 38 48 85 86 47 39 99 85 116 103 32
32 61 41 73 21z m2556 -44 c38 -25 72 -45 74 -45 3 0 27 -14 55 -31 66 -41 67
-65 3 -113 -27 -19 -74 -55 -106 -81 -69 -53 -102 -64 -124 -42 -19 19 -11 32
30 53 53 27 156 114 151 127 -4 12 -64 52 -134 90 -50 27 -74 53 -67 71 10 27
45 18 118 -29z m-680 -6 c43 -15 79 -47 79 -71 0 -24 -45 -35 -68 -16 -44 39
-132 24 -132 -21 0 -22 13 -28 81 -37 94 -13 145 -85 114 -161 -19 -45 -60
-63 -145 -63 -87 0 -140 24 -140 65 0 25 23 28 79 9 102 -33 187 10 134 68
-11 12 -30 18 -60 18 -49 0 -117 30 -133 59 -25 47 1 103 64 142 35 22 78 24
127 8z m-378 -13 c60 -25 66 -39 68 -169 1 -64 5 -120 10 -123 14 -8 10 -36
-8 -56 -20 -22 -59 -24 -67 -3 -4 12 -10 14 -25 5 -26 -13 -107 -13 -134 1
-44 23 -67 52 -67 85 0 60 101 124 194 124 31 0 36 3 32 18 -2 9 -7 27 -11 39
-11 40 -78 41 -122 1 -39 -36 -82 4 -47 44 41 45 116 60 177 34z m-7575 -138
c2 -18 -3 -30 -16 -37 -24 -13 -248 1 -263 16 -6 6 -8 21 -4 32 6 21 11 21
143 19 l137 -3 3 -27z m6497 -191 c17 -50 -9 -59 -151 -55 -125 3 -154 12
-154 47 0 37 20 42 160 39 l135 -3 10 -28z m-6732 -49 c3 -13 9 -58 13 -100 4
-43 9 -78 11 -78 2 0 11 7 19 15 58 57 156 8 184 -91 11 -38 11 -58 1 -108 -7
-33 -17 -68 -22 -78 -24 -44 -126 -65 -173 -35 -17 12 -26 13 -35 4 -24 -24
-35 13 -43 150 -9 139 -5 313 7 333 11 18 33 11 38 -12z m1107 -43 c7 -8 10
-31 8 -50 l-4 -35 46 0 c58 0 72 -10 68 -46 -3 -27 -6 -29 -55 -32 l-53 -3 0
-99 0 -99 53 -3 c50 -3 52 -4 52 -33 0 -25 -5 -30 -35 -37 -19 -4 -50 -5 -68
-1 -53 9 -62 32 -62 165 l0 118 -45 0 c-33 0 -47 5 -52 16 -11 28 11 49 53 50
39 1 39 1 36 38 -5 56 29 86 58 51z m-611 -119 c46 -21 65 -60 65 -133 1 -129
-45 -188 -141 -187 -48 0 -58 4 -91 37 -37 37 -37 38 -37 121 0 79 2 86 31
123 47 58 104 71 173 39z m337 3 c60 -28 84 -71 84 -146 0 -100 -7 -119 -55
-148 -32 -18 -58 -25 -96 -25 -48 0 -55 3 -89 39 -38 40 -50 74 -50 143 0 50
20 84 73 125 49 38 75 41 133 12z m725 -7 c32 -28 49 -82 26 -82 -7 0 -25 9
-42 20 -39 26 -101 26 -142 0 -31 -18 -33 -24 -33 -72 0 -29 6 -64 13 -78 17
-34 73 -43 118 -19 19 10 40 21 47 25 22 11 49 -23 36 -44 -24 -38 -75 -62
-134 -62 -49 0 -60 4 -82 28 -35 37 -45 59 -53 114 -17 112 53 198 162 198 44
0 58 -5 84 -28z m324 4 l30 -24 6 -139 c6 -117 4 -140 -9 -150 -9 -8 -21 -9
-30 -4 -9 5 -50 7 -91 4 -67 -5 -79 -3 -103 17 -21 16 -28 30 -28 56 0 68 51
111 145 123 43 5 50 9 47 26 -2 11 -13 28 -25 38 -24 21 -69 17 -97 -8 -35
-32 -71 -5 -50 36 6 10 12 19 13 19 1 0 20 7 42 15 62 22 115 19 150 -9z m253
8 c12 -8 22 -22 22 -30 0 -8 5 -14 10 -14 6 0 10 6 10 13 0 8 9 22 20 32 17
16 25 17 58 7 54 -16 62 -40 62 -190 0 -132 -6 -152 -42 -152 -25 0 -30 29
-26 160 3 97 1 115 -12 115 -26 0 -48 -63 -56 -156 -6 -83 -22 -124 -41 -105
-4 4 -10 63 -13 131 -3 68 -8 126 -12 130 -3 4 -15 4 -26 1 -26 -9 -42 -73
-42 -169 0 -75 -18 -123 -39 -102 -10 11 -19 320 -10 330 10 10 39 -6 39 -22
0 -11 9 -8 31 11 36 30 38 31 67 10z m443 -1 c60 -36 88 -157 55 -236 -30 -73
-118 -110 -171 -73 -19 13 -20 12 -18 -64 2 -61 -1 -81 -13 -91 -14 -11 -19
-10 -34 8 -15 19 -17 45 -14 230 1 114 3 211 3 216 2 15 41 7 41 -10 0 -14 3
-14 23 4 40 37 83 42 128 16z m354 -32 c120 -41 153 -60 141 -80 -9 -14 -56
-14 -56 0 0 5 -4 8 -9 4 -13 -7 -222 63 -240 80 -12 12 -12 17 -1 30 8 9 21
14 29 11 9 -2 70 -23 136 -45z m3573 -44 c6 -7 13 -51 16 -97 2 -47 5 -87 5
-89 1 -3 10 5 21 17 16 17 32 22 67 22 42 0 50 -5 94 -49 52 -51 54 -59 51
-174 -2 -106 -122 -184 -214 -138 l-41 20 -16 -21 c-35 -42 -41 -6 -43 253 -1
134 1 250 5 257 11 16 42 16 55 -1z m1262 -83 c0 -47 3 -55 18 -53 9 1 39 1
65 0 40 -1 49 -5 56 -23 16 -42 -4 -60 -62 -58 -29 2 -58 2 -64 1 -16 -1 -18
-173 -3 -202 9 -15 22 -19 65 -19 51 0 55 -2 61 -27 4 -14 2 -33 -3 -42 -23
-36 -151 -19 -179 24 -12 18 -15 50 -15 137 0 62 -3 119 -8 127 -6 10 -21 12
-49 9 -54 -8 -69 3 -56 39 8 25 15 28 57 31 l47 3 0 39 c0 56 8 70 41 70 29 0
29 -1 29 -56z m-4694 13 c15 -15 -7 -35 -53 -47 -26 -7 -86 -24 -133 -37 -130
-38 -127 -38 -135 -13 -4 12 -5 23 -3 25 1 1 62 21 133 42 122 37 176 46 191
30z m5564 -96 c23 -17 25 -26 32 -137 4 -65 11 -130 14 -144 10 -34 6 -53 -14
-67 -22 -18 -52 -16 -73 3 -15 13 -24 14 -52 5 -46 -15 -111 -4 -142 25 -19
17 -25 33 -25 64 0 72 71 120 178 120 41 0 42 1 42 33 0 26 -6 36 -25 45 -38
17 -77 14 -105 -8 -30 -24 -63 -25 -80 -4 -11 13 -9 19 12 40 54 55 180 68
238 25z m278 13 c12 -8 22 -23 22 -32 0 -12 9 -7 33 16 43 41 83 43 120 4 27
-28 27 -30 27 -169 0 -78 -3 -148 -6 -157 -7 -19 -45 -21 -61 -5 -9 9 -10 51
-6 147 6 127 5 134 -12 131 -35 -7 -56 -63 -68 -175 -11 -112 -25 -137 -54
-98 -12 15 -14 42 -8 134 7 129 3 150 -29 150 -17 0 -18 -2 -6 -10 13 -8 12
-10 -3 -10 -25 0 -34 -30 -46 -155 -12 -116 -20 -137 -46 -115 -13 11 -15 38
-13 179 3 158 4 166 23 166 14 0 19 -6 18 -19 -1 -16 2 -15 25 8 30 30 58 33
90 10z m868 -55 c63 -40 117 -76 120 -81 9 -15 -17 -38 -106 -96 -106 -68
-144 -86 -164 -79 -33 13 -14 39 67 91 89 57 120 86 95 86 -8 0 -23 9 -33 20
-10 11 -26 20 -35 20 -26 0 -100 58 -100 78 0 49 24 43 156 -39z m-2715 36
c50 -32 61 -60 61 -164 0 -76 -3 -87 -29 -124 -31 -45 -53 -54 -126 -56 -65
-1 -101 19 -127 74 -29 61 -26 179 6 222 56 75 141 94 215 48z m384 11 c23
-10 43 -31 65 -68 28 -48 30 -58 25 -113 -7 -71 -21 -95 -77 -135 -73 -53
-186 -37 -228 33 -45 73 -15 228 53 274 38 26 111 30 162 9z m795 -4 c38 -18
64 -60 54 -86 -9 -22 -21 -20 -56 9 -27 23 -38 26 -91 23 -51 -3 -63 -7 -79
-29 -33 -44 -34 -99 -4 -147 26 -41 28 -42 80 -42 44 0 60 5 85 26 61 51 87
-7 29 -63 -44 -42 -98 -56 -157 -41 -52 13 -70 31 -107 107 -22 47 -25 62 -19
110 8 65 41 116 89 137 44 19 134 17 176 -4z m1191 -9 c40 -34 59 -79 59 -143
0 -61 -17 -104 -60 -153 -29 -34 -37 -37 -84 -37 -29 0 -59 7 -70 15 -11 8
-22 15 -25 15 -3 0 -5 -37 -4 -82 2 -100 -14 -130 -51 -92 -14 13 -16 49 -16
239 0 123 3 230 6 239 9 22 41 20 49 -3 6 -18 7 -18 32 5 38 36 119 34 164 -3z
m-9660 -3 c11 -6 19 -21 19 -36 0 -22 -4 -25 -32 -22 -26 2 -34 8 -36 27 -2
13 2 28 10 32 17 11 16 11 39 -1z m6477 -284 c3 -20 -2 -28 -19 -35 -53 -19
-91 27 -50 60 29 24 65 11 69 -25z m-1036 -1319 c0 -29 0 -64 -1 -79 -3 -32
-3 -32 39 -14 40 16 87 7 135 -25 37 -26 39 -34 51 -209 4 -76 3 -99 -10 -115
-12 -16 -18 -18 -33 -9 -16 10 -18 28 -21 140 -3 142 -9 157 -70 166 -25 4
-37 -1 -59 -24 -27 -28 -28 -34 -31 -148 -4 -127 -15 -158 -47 -127 -13 13
-15 54 -15 260 0 256 2 266 43 245 12 -6 17 -22 19 -61z m-1289 44 c5 -5 7
-17 5 -27 -3 -17 -16 -19 -126 -22 l-123 -3 2 -64 c1 -35 5 -68 8 -73 3 -5 42
-8 86 -8 79 1 80 1 80 -24 0 -24 -2 -25 -81 -28 l-82 -3 -8 -122 -9 -122 -30
0 -30 0 -2 210 c-3 246 1 292 25 298 30 7 276 -3 285 -12z m214 11 c9 -6 13
-66 15 -222 l3 -215 25 -2 c14 0 41 -1 61 -2 42 -1 59 -25 35 -50 -13 -12 -40
-15 -137 -13 -134 1 -154 5 -164 30 -9 23 21 42 66 42 21 0 40 3 43 8 2 4 6
84 7 177 l3 170 -35 3 c-81 6 -104 27 -70 61 13 13 34 19 77 20 33 0 65 -3 71
-7z m1689 -16 c7 -19 -15 -92 -61 -196 -20 -47 -40 -94 -44 -105 -5 -11 -23
-56 -40 -100 -54 -134 -60 -145 -76 -145 -25 0 -30 29 -12 74 36 92 78 193 91
216 7 14 30 72 51 130 44 125 75 168 91 126z m-2766 -101 c0 -8 -19 -27 -42
-44 -24 -16 -65 -51 -91 -76 l-49 -47 24 -17 c61 -42 160 -125 170 -144 8 -16
7 -23 -8 -34 -10 -7 -21 -13 -24 -13 -4 0 -48 36 -98 79 -50 44 -105 87 -121
97 -17 10 -31 25 -31 34 0 8 22 31 47 50 26 19 77 61 115 93 58 48 72 56 89
47 10 -6 19 -17 19 -25z m1563 -51 c20 -13 37 -30 37 -37 1 -6 5 -75 10 -152
5 -94 5 -144 -2 -152 -16 -20 -56 -15 -68 7 -10 19 -12 19 -35 4 -19 -12 -40
-15 -81 -12 -74 6 -108 32 -111 84 -5 65 48 107 155 124 66 11 75 19 67 52
-12 47 -82 55 -141 18 -26 -16 -54 -7 -54 18 0 23 24 45 65 60 69 25 100 22
158 -14z m374 15 c12 -4 29 -20 39 -34 13 -20 14 -28 4 -40 -16 -20 -30 -19
-60 5 -33 26 -101 27 -124 1 -33 -36 -5 -57 105 -77 18 -4 49 -20 67 -37 58
-56 36 -141 -45 -168 -53 -17 -154 -6 -192 20 -56 40 -30 87 33 62 99 -41 171
-36 164 11 -3 25 -25 38 -112 69 -104 38 -134 98 -78 160 41 46 122 57 199 28z
m-1501 -323 c3 -13 1 -34 -6 -45 -10 -21 -16 -21 -148 -15 -137 6 -182 17
-182 47 0 32 24 37 177 37 l153 0 6 -24z m-246 -285 c5 -11 10 -67 10 -125 l0
-105 26 23 c61 55 64 56 92 50 37 -9 89 -49 114 -88 17 -27 19 -42 14 -120 -4
-55 -12 -99 -22 -113 -38 -59 -131 -81 -194 -45 -29 16 -31 16 -41 0 -5 -10
-16 -18 -24 -18 -7 0 -16 8 -19 18 -2 9 -7 130 -11 269 -6 237 -5 252 12 262
25 15 31 14 43 -8z m1284 -47 c12 -4 16 -20 16 -53 l0 -47 56 -2 c78 -2 101
-24 70 -67 -10 -14 -24 -19 -51 -17 -74 5 -75 4 -75 -119 l0 -109 53 0 c42 0
58 -5 73 -21 14 -15 16 -24 8 -37 -14 -22 -140 -29 -167 -10 -28 20 -38 83
-31 190 7 109 10 103 -66 112 -25 3 -46 5 -47 5 -2 1 -3 9 -3 18 0 30 31 53
72 53 l38 0 0 43 c0 56 17 75 54 61z m-692 -141 c47 -31 66 -75 67 -152 3
-136 -78 -217 -190 -192 -23 5 -54 18 -68 29 -32 23 -59 100 -60 170 -1 44 4
61 30 99 37 53 98 86 147 79 17 -3 51 -18 74 -33z m383 8 c22 -10 53 -34 68
-54 23 -31 27 -45 27 -106 0 -84 -11 -117 -51 -153 -79 -70 -206 -59 -253 22
-17 28 -21 52 -21 120 0 77 3 89 25 117 56 70 129 89 205 54z m794 -1 c66 -30
90 -72 56 -100 -12 -10 -20 -7 -45 13 -38 33 -78 41 -129 27 -48 -13 -58 -29
-67 -103 -6 -47 -3 -60 14 -85 37 -51 125 -51 179 0 21 19 63 18 63 -2 0 -28
-25 -63 -62 -87 -58 -37 -141 -38 -187 -2 -50 39 -71 94 -71 182 0 72 2 78 32
113 58 66 135 81 217 44z m400 -5 c30 -26 30 -26 34 -148 2 -67 8 -135 12
-150 14 -51 -45 -88 -85 -52 -13 12 -23 13 -44 5 -80 -30 -185 13 -186 77 -1
61 61 113 158 133 58 12 62 14 62 41 0 24 -6 30 -35 38 -50 14 -102 3 -108
-21 -9 -32 -51 -20 -55 15 -7 55 47 86 150 87 57 0 71 -4 97 -25z m274 11 c9
-7 17 -23 17 -34 0 -11 5 -24 10 -27 6 -3 10 3 10 14 0 70 128 82 159 14 14
-31 15 -288 1 -314 -6 -10 -19 -19 -29 -19 -37 0 -43 23 -39 162 3 120 1 133
-15 136 -25 5 -44 -47 -65 -180 -14 -89 -22 -114 -35 -116 -25 -5 -28 13 -30
159 -2 140 -7 153 -46 122 -20 -16 -24 -33 -32 -138 -9 -115 -20 -150 -43
-142 -12 4 -39 319 -30 350 7 21 22 22 44 2 15 -14 19 -13 35 5 21 23 62 26
88 6z m532 -17 c54 -47 65 -77 65 -169 l0 -81 -51 -50 c-47 -46 -54 -49 -102
-49 -38 0 -56 5 -74 22 l-23 21 0 -95 c0 -106 -11 -129 -49 -108 -20 10 -21
18 -21 259 0 208 2 251 15 261 25 21 45 4 46 -37 1 -27 3 -32 7 -18 17 50 52
73 114 74 28 1 46 -7 73 -30z m275 -7 c193 -98 201 -104 198 -131 -2 -21 -26
-40 -131 -104 -104 -64 -131 -76 -142 -67 -8 7 -15 19 -15 26 0 18 187 140
208 136 10 -2 14 -1 10 3 -9 10 -160 95 -168 95 -14 0 -52 49 -45 59 10 16 25
13 85 -17z m-3508 -266 c14 -33 4 -56 -25 -56 -33 0 -51 24 -43 55 9 34 52 35
68 1z m-2348 -908 c8 -13 8 -23 0 -35 -9 -15 -28 -18 -116 -19 -57 0 -110 -4
-116 -8 -7 -4 -12 -31 -12 -66 0 -69 -1 -68 115 -72 67 -3 70 -4 70 -28 0 -24
-2 -25 -81 -28 l-81 -3 -6 -111 c-7 -124 -18 -149 -56 -129 -21 11 -21 17 -21
261 0 189 3 249 13 253 6 3 72 4 146 3 116 -1 135 -3 145 -18z m215 9 c7 -9
12 -89 13 -223 l3 -209 56 3 c58 3 89 -12 89 -42 0 -33 -28 -38 -169 -34 -77
2 -142 6 -146 9 -3 4 -7 19 -8 35 -2 29 -1 29 56 32 31 2 57 4 57 5 1 1 3 82
6 180 l6 177 -41 0 c-39 0 -91 17 -91 29 0 4 7 17 16 29 13 19 24 22 78 22 41
0 68 -5 75 -13z m1032 -84 c1 -49 1 -92 -1 -98 -1 -5 7 -2 17 7 10 10 37 20
60 24 33 5 49 2 78 -16 54 -33 63 -61 66 -193 3 -122 -3 -142 -37 -135 -17 3
-19 14 -19 128 l0 124 -34 23 c-19 13 -37 23 -41 23 -5 0 -24 -16 -44 -36
l-36 -36 0 -93 c0 -130 -21 -173 -63 -130 -12 12 -14 51 -10 237 3 123 10 231
15 241 5 9 18 17 28 17 18 0 20 -8 21 -87z m905 72 c6 -15 -99 -303 -139 -380
-11 -22 -28 -65 -37 -95 -13 -42 -23 -56 -39 -58 -12 -2 -24 3 -27 12 -5 14
27 109 71 211 7 17 31 75 53 130 68 170 81 195 97 195 9 0 18 -7 21 -15z
m-2952 -91 c9 -23 -2 -37 -69 -87 -33 -25 -70 -56 -83 -70 l-24 -25 45 -41
c25 -23 62 -54 84 -70 56 -40 69 -59 56 -79 -5 -10 -16 -18 -24 -20 -8 -1 -54
34 -104 79 -49 44 -100 88 -112 96 -46 31 -32 50 137 181 70 55 85 60 94 36z
m2522 -86 c57 -40 106 -81 110 -90 3 -10 0 -26 -6 -38 -14 -27 -201 -150 -227
-150 -22 0 -36 20 -25 37 10 14 159 113 172 113 28 0 1 31 -81 93 -78 60 -88
71 -79 88 6 10 16 19 22 19 6 0 57 -33 114 -72z m-1060 30 c49 -34 64 -75 64
-178 0 -49 5 -101 10 -115 21 -54 -26 -89 -72 -55 -23 17 -32 19 -49 9 -13 -6
-45 -9 -76 -7 -93 8 -144 85 -95 144 24 28 80 57 98 50 9 -3 12 -1 9 4 -3 6 0
10 9 10 8 0 22 3 32 7 11 4 15 3 11 -4 -4 -7 0 -9 11 -6 10 2 24 13 30 24 30
47 -22 87 -88 69 -22 -6 -42 -15 -45 -20 -9 -15 -52 -12 -58 3 -3 7 2 23 12
34 43 55 140 70 197 31z m392 -12 c70 -44 48 -85 -27 -47 -49 26 -83 27 -103
4 -40 -47 -28 -68 42 -79 48 -7 115 -46 131 -75 18 -35 10 -74 -22 -105 -29
-28 -34 -29 -119 -29 -88 0 -90 1 -122 33 -31 31 -32 34 -15 47 16 12 24 11
57 -6 56 -30 123 -30 152 -1 33 33 15 53 -68 75 -76 19 -107 38 -132 79 -14
24 -14 30 -1 54 7 15 34 41 59 56 55 36 105 34 168 -6z m-1447 -297 c5 -8 8
-20 6 -28 -5 -30 -33 -34 -173 -25 -122 8 -139 11 -142 27 -7 38 11 43 159 41
107 -1 144 -5 150 -15z m7631 -82 c12 -19 10 -34 -8 -52 -14 -13 -37 -16 -141
-13 l-124 3 3 -84 3 -83 95 -2 95 -1 0 -30 0 -30 -97 -3 -97 -3 -3 -136 c-3
-116 -6 -137 -20 -147 -14 -8 -22 -6 -38 9 -18 19 -19 34 -20 285 0 146 0 273
0 282 0 16 16 18 143 21 165 4 198 1 209 -16z m1442 17 c13 -5 16 -23 16 -94
0 -49 4 -91 8 -94 5 -3 21 4 38 15 48 31 88 25 138 -21 55 -51 68 -99 65 -236
-3 -126 -5 -134 -34 -134 -31 0 -33 11 -37 167 -2 80 -7 126 -15 134 -7 7 -35
15 -63 19 -27 3 -48 4 -45 2 2 -2 -9 -15 -25 -29 l-29 -24 -3 -137 c-3 -137
-3 -137 -27 -140 -48 -7 -51 11 -51 287 0 141 4 261 8 267 4 6 14 14 22 17 8
3 16 6 17 6 1 1 8 -2 17 -5z m-1184 -30 c6 -14 10 -126 10 -250 l0 -224 70 0
c58 0 71 -3 80 -19 14 -27 13 -37 -6 -55 -13 -13 -44 -16 -180 -16 -151 0
-166 2 -184 20 -21 21 -23 29 -14 54 5 12 20 16 64 16 32 0 64 2 72 5 10 4 13
48 13 208 0 172 -2 202 -15 203 -8 1 -29 2 -46 3 -45 2 -68 22 -60 54 6 27 7
27 96 27 88 0 91 -1 100 -26z m2238 -15 c2 -15 -16 -72 -41 -130 -24 -57 -50
-121 -56 -141 -7 -21 -17 -40 -22 -43 -5 -4 -9 -13 -9 -20 0 -8 -11 -38 -24
-67 -13 -29 -31 -78 -41 -108 -26 -81 -41 -103 -65 -90 -29 16 -25 37 30 173
27 67 74 187 104 265 30 79 62 155 71 168 21 32 49 27 53 -7z m-3510 -86 c2
-16 -15 -36 -74 -85 -42 -35 -91 -75 -108 -90 l-31 -26 20 -22 c11 -13 43 -40
70 -61 105 -80 128 -105 121 -127 -14 -44 -42 -37 -121 32 -40 35 -96 77 -122
92 -104 59 -106 76 -21 142 34 26 98 75 142 110 84 66 118 75 124 35z m2959
-44 c112 -69 192 -129 198 -150 4 -13 0 -28 -12 -41 -27 -32 -254 -198 -269
-198 -15 0 -45 40 -39 51 3 4 31 22 63 39 31 18 85 54 119 79 58 42 75 61 55
61 -4 0 -25 16 -47 35 -22 19 -46 33 -52 30 -7 -2 -12 1 -10 8 1 7 -5 13 -13
13 -8 1 -19 2 -25 3 -14 2 -85 66 -85 77 0 14 22 34 37 34 7 0 43 -19 80 -41z
m-1162 -8 c51 -29 65 -71 65 -196 0 -61 4 -126 10 -145 12 -42 -6 -66 -58 -76
-29 -6 -32 -4 -32 19 0 25 -1 25 -27 11 -54 -27 -178 -11 -210 28 -22 26 -24
81 -6 117 25 48 79 73 169 79 69 4 74 6 74 28 0 12 -4 34 -10 48 -9 24 -14 26
-68 26 -45 0 -66 -5 -86 -21 -25 -20 -28 -20 -51 -5 -30 20 -32 37 -4 62 56
51 167 63 234 25z m444 -1 c21 -10 43 -25 50 -34 34 -41 -20 -79 -63 -45 -57
45 -146 29 -146 -26 0 -25 1 -26 115 -55 22 -6 47 -16 56 -23 26 -20 49 -73
49 -115 0 -31 -7 -45 -36 -73 -35 -33 -36 -34 -122 -34 -70 0 -95 5 -129 23
-48 25 -63 56 -39 80 14 15 19 14 53 -2 43 -20 129 -32 167 -22 21 5 26 12 26
36 0 38 -26 55 -107 70 -64 13 -123 55 -123 89 0 9 -3 26 -6 38 -4 15 3 31 28
58 60 65 143 78 227 35z m-9109 -39 c5 -11 10 -63 10 -117 l0 -97 28 31 c43
48 65 55 111 36 22 -9 53 -32 68 -52 25 -33 28 -47 31 -122 3 -76 1 -89 -20
-119 -44 -65 -126 -88 -190 -55 -28 15 -33 15 -43 1 -8 -11 -16 -12 -28 -6
-15 9 -17 35 -17 259 0 247 1 256 32 259 4 1 12 -8 18 -18z m1244 -37 c3 -9 6
-31 6 -50 0 -33 1 -34 40 -34 124 0 134 -92 10 -94 -34 -1 -35 -2 -42 -51 -3
-27 -4 -74 -1 -102 l6 -53 40 0 c63 0 100 -48 62 -80 -21 -18 -110 -15 -140 4
-40 26 -47 51 -46 166 l1 109 -43 6 c-50 8 -74 34 -58 64 12 22 59 33 83 20
16 -9 18 -4 18 44 0 30 3 57 7 60 12 13 51 7 57 -9z m831 -116 c6 -7 17 -14
25 -16 8 -2 18 -6 22 -10 3 -4 8 -79 10 -167 l3 -160 -33 -3 c-18 -2 -39 2
-47 8 -10 8 -19 8 -34 1 -53 -29 -151 0 -171 50 -16 38 -6 72 33 115 27 30 43
37 100 47 63 10 67 13 67 38 0 15 -7 32 -15 39 -21 18 -82 6 -111 -21 -22 -21
-24 -21 -49 -5 -14 9 -25 20 -25 25 0 20 37 53 74 65 45 16 137 12 151 -6z
m-1514 -9 c50 -25 78 -82 79 -157 0 -63 -16 -105 -59 -152 -31 -34 -35 -35
-103 -35 -64 0 -72 3 -93 28 -68 79 -55 258 23 316 36 27 101 27 153 0z m374
2 c59 -27 73 -49 85 -130 15 -109 3 -143 -70 -194 -30 -21 -117 -23 -165 -3
-54 23 -75 67 -75 157 0 65 3 80 25 110 33 43 91 79 130 79 17 0 48 -9 70 -19z
m768 8 c39 -20 67 -52 67 -76 0 -28 -9 -29 -57 -3 -45 24 -110 26 -140 5 -45
-32 -54 -153 -14 -189 10 -9 41 -19 69 -23 48 -5 52 -4 81 27 25 28 32 31 45
20 25 -20 19 -50 -20 -86 -30 -29 -42 -34 -85 -34 -89 0 -147 40 -168 115 -23
83 -8 168 35 207 51 45 137 62 187 37z m679 -17 c17 -14 22 -14 68 13 37 21
68 18 95 -10 24 -23 25 -29 25 -160 0 -75 -5 -145 -10 -156 -13 -23 -56 -25
-64 -2 -4 9 -4 73 0 141 7 118 6 124 -12 120 -27 -5 -41 -40 -59 -153 -18
-112 -36 -144 -62 -110 -12 16 -14 40 -9 130 3 61 2 116 -3 123 -4 8 -18 12
-31 10 -30 -4 -45 -52 -54 -169 -7 -96 -17 -122 -42 -112 -22 8 -16 348 6 348
9 0 17 -13 20 -30 6 -29 6 -29 14 -7 9 26 61 53 85 44 9 -3 24 -12 33 -20z
m478 6 c60 -31 80 -73 80 -166 0 -72 0 -74 -43 -118 -50 -53 -108 -69 -151
-40 -14 9 -28 16 -30 16 -3 0 -7 -42 -8 -92 -3 -87 -4 -93 -25 -96 -14 -2 -26
4 -33 19 -10 17 -9 20 1 14 9 -6 10 8 3 71 -5 43 -9 149 -9 234 0 145 1 155
19 158 11 2 25 -3 31 -12 11 -14 15 -13 45 9 42 31 64 31 120 3z m365 -53 c63
-41 115 -79 115 -85 0 -26 -238 -167 -265 -156 -8 3 -15 14 -15 25 0 22 113
97 130 86 6 -4 9 -1 8 6 -2 6 3 14 11 17 9 3 11 0 6 -8 -6 -9 -3 -9 14 -1 24
13 28 23 6 15 -11 -4 -13 -2 -9 9 4 11 -15 28 -63 60 -86 56 -100 72 -83 92 7
8 16 15 21 15 5 0 61 -34 124 -75z m4163 -97 c7 -7 12 -24 12 -38 0 -14 -5
-31 -12 -38 -15 -15 -287 -16 -341 -1 -35 9 -38 13 -35 42 3 28 8 33 38 38 68
12 325 10 338 -3z m-7620 -134 c2 -24 -1 -33 -16 -36 -28 -8 -52 9 -52 37 0
25 13 35 45 32 15 -1 21 -10 23 -33z m7313 -210 c9 -11 16 -55 19 -131 l5
-114 34 32 c32 28 39 31 87 27 59 -5 104 -36 141 -97 19 -29 23 -51 23 -114 0
-91 -14 -129 -64 -176 -33 -32 -40 -35 -105 -35 -56 -1 -75 3 -98 20 l-29 22
-10 -22 c-9 -20 -53 -36 -55 -19 0 4 -2 19 -4 33 -2 14 -5 148 -6 298 -3 232
-1 274 11 282 22 14 36 12 51 -6z m1479 -93 c5 -11 10 -31 10 -44 0 -22 5 -25
62 -30 68 -6 88 -21 88 -68 0 -33 -14 -39 -91 -39 l-59 0 3 -110 c1 -71 7
-114 15 -122 7 -7 36 -15 64 -18 40 -4 55 -11 71 -31 16 -22 17 -30 7 -49 -11
-21 -16 -21 -92 -16 -87 7 -111 16 -123 43 -5 10 -10 82 -13 159 l-4 142 -63
7 c-52 5 -64 10 -68 27 -9 33 34 68 83 68 l40 0 0 44 c0 26 5 46 13 49 26 11
47 6 57 -12z m-811 -115 c104 -48 136 -278 49 -351 -94 -80 -221 -74 -285 14
-29 38 -47 145 -34 201 22 100 103 163 195 153 28 -3 62 -11 75 -17z m1335 13
c50 -14 96 -59 96 -94 0 -37 -25 -41 -70 -10 -48 33 -106 36 -154 6 -44 -28
-60 -67 -54 -137 6 -66 28 -89 95 -100 55 -8 92 1 125 33 23 22 30 24 43 13
26 -22 18 -56 -22 -90 -49 -39 -99 -54 -156 -46 -104 16 -157 89 -157 219 0
43 5 88 11 100 17 32 61 77 76 77 7 0 13 4 13 9 0 26 91 37 154 20z m453 -13
c28 -14 56 -33 62 -45 6 -11 11 -69 11 -130 0 -60 5 -132 12 -161 13 -57 5
-73 -43 -85 -20 -5 -32 -1 -45 13 -17 18 -24 19 -69 9 -99 -20 -180 20 -192
96 -5 33 -2 42 23 69 37 39 104 69 174 77 50 5 55 8 58 33 4 31 -26 56 -80 64
-27 5 -40 1 -66 -21 -53 -45 -106 -17 -80 41 28 61 147 81 235 40z m554 9 c16
-9 34 -27 39 -41 11 -28 12 -305 1 -344 -8 -29 -58 -41 -72 -18 -12 18 -11
155 0 160 5 2 6 37 3 83 -8 88 -20 100 -54 54 -13 -17 -25 -65 -38 -153 -18
-130 -33 -165 -64 -153 -14 5 -16 30 -16 166 0 88 -4 162 -9 165 -19 12 -62
-15 -75 -46 -7 -18 -16 -84 -20 -147 -4 -63 -9 -118 -12 -122 -11 -19 -52 -9
-57 14 -8 31 0 348 8 370 11 27 39 16 43 -16 l3 -28 29 31 c38 41 89 42 121 3
l23 -28 32 33 c36 36 68 41 115 17z m408 -15 c66 -43 91 -90 91 -173 0 -89
-26 -146 -86 -186 -66 -43 -114 -49 -167 -19 l-43 25 -1 -98 c-1 -54 -4 -103
-8 -109 -3 -5 -17 -10 -30 -10 -35 0 -38 29 -32 320 4 197 8 254 18 261 32 20
49 3 49 -49 l0 -27 20 30 c24 37 74 65 115 65 16 0 50 -13 74 -30z m402 -45
c160 -84 179 -100 152 -126 -30 -28 -305 -180 -321 -177 -8 2 -20 11 -26 21
-13 22 -8 27 128 112 53 33 96 63 96 66 0 4 -28 22 -62 39 -106 55 -146 80
-152 97 -7 18 10 43 29 43 7 0 77 -34 156 -75z m-2704 54 c76 -28 112 -99 113
-215 0 -97 -19 -134 -90 -172 -37 -19 -56 -23 -111 -20 -77 4 -125 33 -154 94
-22 48 -31 142 -16 186 15 46 68 107 106 124 37 16 114 18 152 3z m-1399 -321
c20 -20 14 -54 -13 -68 -20 -11 -28 -10 -50 4 -27 18 -35 60 -12 69 23 10 63
7 75 -5z m-5097 -377 c85 -1 108 -4 113 -16 14 -38 -2 -44 -122 -47 l-117 -3
-3 -67 -3 -67 88 -3 c88 -3 88 -3 91 -30 3 -28 3 -28 -60 -28 -110 0 -108 2
-108 -102 0 -49 -5 -98 -10 -109 -13 -23 -55 -25 -64 -4 -7 20 -7 421 0 451 6
24 22 31 64 27 14 -1 73 -2 131 -2z m313 3 c14 -5 16 -34 16 -215 l0 -208 61
-3 c45 -2 65 -8 73 -20 21 -34 -7 -43 -142 -46 -116 -3 -129 -2 -145 16 -17
18 -17 21 -2 36 10 9 33 16 56 16 l39 0 0 175 0 175 -36 0 c-65 0 -92 30 -58
64 16 16 105 22 138 10z m1054 -87 c1 -48 7 -87 12 -87 6 0 10 9 10 20 0 32
64 38 117 10 69 -37 75 -54 77 -206 1 -142 -7 -170 -42 -148 -15 10 -17 29
-17 137 0 113 -2 128 -20 147 -17 17 -25 18 -57 9 -23 -6 -46 -22 -59 -41 -21
-28 -23 -43 -22 -139 2 -92 -1 -108 -15 -114 -10 -4 -23 1 -32 12 -22 28 -22
469 0 483 36 23 45 8 48 -83z m612 62 c0 -23 -70 -212 -153 -414 -43 -105 -58
-131 -75 -133 -19 -3 -22 1 -22 30 0 19 4 38 9 44 4 5 19 41 32 79 12 39 26
75 30 80 12 18 69 166 69 181 0 8 4 14 9 14 4 0 11 16 14 34 10 61 37 106 63
106 18 0 24 -6 24 -21z m-2709 -61 c11 -20 7 -26 -37 -62 -26 -23 -67 -59 -91
-81 l-43 -40 57 -47 c84 -67 143 -123 143 -136 0 -13 -28 -42 -40 -42 -4 0
-41 32 -82 71 -40 39 -94 87 -120 107 -27 20 -48 43 -48 52 0 9 35 43 77 75
42 33 93 75 113 92 42 38 55 41 71 11z m1506 -64 c46 -29 58 -62 60 -164 2
-52 6 -110 9 -128 5 -24 2 -38 -11 -52 -22 -24 -61 -26 -73 -4 -8 14 -14 15
-42 5 -39 -13 -80 -15 -80 -2 0 5 -13 11 -28 14 -71 14 -93 69 -52 127 26 37
64 55 135 65 28 4 53 13 57 19 38 57 -56 102 -116 55 -30 -24 -69 -22 -74 4
-5 25 34 65 72 76 41 11 116 3 143 -15z m375 5 c59 -30 75 -69 38 -89 -17 -9
-26 -7 -51 14 -36 31 -88 34 -112 8 -22 -25 -10 -39 56 -61 107 -37 137 -66
137 -132 0 -82 -143 -129 -240 -79 -41 21 -61 46 -53 68 6 17 24 15 74 -8 76
-34 149 -22 149 25 0 20 -11 28 -82 55 -107 41 -130 62 -126 115 3 35 8 43 51
71 38 25 56 31 92 28 24 -1 54 -8 67 -15z m-1454 -301 c15 -15 16 -55 0 -64
-6 -4 -69 -7 -139 -7 -132 -1 -159 7 -159 42 0 36 21 41 155 41 89 0 135 -4
143 -12z m-258 -298 c10 -6 17 -35 21 -91 3 -49 10 -84 17 -87 15 -5 16 -32 2
-32 -5 0 -10 -5 -10 -12 0 -6 9 -3 20 7 11 10 20 24 20 30 0 7 16 16 35 19 44
9 118 -32 141 -77 18 -34 20 -153 4 -202 -22 -65 -164 -112 -210 -70 -19 17
-21 17 -33 2 -37 -51 -55 60 -56 364 -1 150 7 176 49 149z m1260 -110 l5 -45
55 -3 c64 -4 82 -16 78 -51 -3 -25 -7 -26 -66 -29 l-62 -3 3 -102 2 -102 50
-3 c27 -2 55 -8 62 -14 19 -16 16 -56 -6 -68 -48 -25 -149 -3 -167 37 -4 10
-9 63 -10 118 -1 55 -2 108 -3 118 -1 14 -10 17 -50 17 -60 0 -80 18 -62 56
10 23 16 26 56 22 l45 -3 0 46 c0 53 5 61 40 57 22 -3 26 -9 30 -48z m820 -66
c22 -9 45 -25 50 -35 6 -10 10 -70 10 -134 0 -64 4 -124 10 -134 15 -29 -14
-61 -56 -61 -19 0 -34 4 -34 9 0 5 -27 7 -60 4 -106 -10 -164 43 -137 125 18
55 65 82 142 82 62 0 62 0 60 28 -2 44 -12 52 -62 52 -34 0 -53 -6 -70 -22
-19 -18 -27 -20 -48 -10 -31 14 -32 42 -2 70 46 44 126 54 197 26z m-1505 -20
c45 -21 65 -69 65 -157 0 -130 -49 -181 -167 -175 -54 3 -67 8 -93 34 -39 41
-50 73 -50 147 0 84 32 139 99 169 23 11 109 0 146 -18z m394 0 c64 -32 81
-65 81 -156 0 -116 -59 -177 -169 -178 -104 0 -165 70 -165 191 0 58 4 72 28
103 52 69 136 84 225 40z m780 -18 c33 -34 42 -49 36 -65 -9 -28 -21 -27 -62
9 -39 35 -85 39 -138 14 -26 -12 -35 -24 -44 -59 -16 -64 -14 -77 17 -113 34
-41 84 -51 134 -28 20 10 40 26 45 38 8 19 10 20 26 4 23 -24 21 -39 -9 -75
-26 -31 -76 -51 -129 -51 -111 0 -188 156 -139 280 23 56 83 86 184 89 30 1
43 -6 79 -43z m640 23 c22 -20 23 -20 36 -3 10 14 25 19 60 18 77 -2 80 -10
77 -186 -2 -84 -6 -156 -8 -160 -8 -13 -41 -9 -53 6 -9 10 -10 49 -5 140 6
115 5 126 -10 126 -27 0 -57 -88 -74 -215 -6 -41 -11 -50 -27 -50 -19 0 -20 8
-25 136 -5 135 -5 136 -27 128 -33 -12 -41 -37 -53 -155 -6 -71 -15 -113 -25
-123 -8 -8 -17 -12 -21 -8 -10 9 -23 231 -17 285 6 57 23 80 45 59 12 -13 17
-12 37 4 30 25 62 24 90 -2z m471 -1 c61 -42 75 -71 74 -152 0 -81 -18 -124
-67 -160 -36 -27 -107 -28 -134 -3 -11 9 -23 17 -26 17 -4 0 -7 -43 -7 -95 0
-86 -2 -95 -19 -95 -36 0 -40 20 -41 245 -1 121 -1 226 -1 233 1 17 40 15 47
-2 4 -12 13 -10 41 10 45 30 90 31 133 2z m350 -49 c66 -39 120 -77 120 -84 0
-16 -19 -32 -118 -99 -122 -83 -137 -89 -156 -70 -27 26 -18 40 49 74 19 10
57 35 84 55 l49 38 -57 28 c-72 36 -133 91 -125 113 3 9 12 16 20 16 8 0 68
-32 134 -71z m-3426 -202 c11 -8 17 -23 14 -38 -6 -44 -88 -35 -88 10 0 37 41
52 74 28z"/>
<path d="M2938 8973 c7 -3 16 -2 19 1 4 3 -2 6 -13 5 -11 0 -14 -3 -6 -6z"/>
<path d="M2900 8783 c-60 -11 -80 -64 -30 -82 44 -15 86 3 99 41 6 17 11 35
11 39 0 9 -36 10 -80 2z"/>
<path d="M9607 8594 c-26 -6 -54 -18 -62 -24 -21 -17 -19 -47 4 -60 51 -27
121 8 121 60 0 37 -6 40 -63 24z"/>
<path d="M1922 8187 c-12 -13 -22 -29 -22 -36 0 -7 -4 -10 -8 -7 -12 7 -15
-110 -3 -132 8 -15 18 -17 62 -12 44 4 56 9 66 30 16 32 16 118 0 150 -18 35
-65 39 -95 7z"/>
<path d="M2240 8192 c-16 -13 -23 -32 -27 -77 -4 -51 -2 -64 17 -87 30 -39 90
-39 119 -2 29 37 30 131 1 162 -26 27 -79 29 -110 4z"/>
<path d="M2580 8192 c-19 -16 -23 -29 -24 -80 -1 -51 3 -65 23 -86 30 -32 72
-34 113 -5 29 21 30 24 26 92 -3 53 -8 72 -23 83 -27 20 -89 17 -115 -4z"/>
<path d="M3665 8080 c-77 -20 -100 -36 -89 -65 5 -12 18 -15 58 -13 47 3 52 6
68 38 27 54 25 56 -37 40z"/>
<path d="M4329 8203 c-9 -11 -14 -41 -13 -89 0 -83 18 -114 65 -114 43 0 69
41 69 107 0 47 -4 59 -29 84 -33 32 -71 38 -92 12z"/>
<path d="M8438 7963 c-46 -52 -61 -132 -35 -183 10 -20 22 -26 62 -30 49 -5
50 -4 67 30 30 61 18 169 -20 186 -35 15 -59 14 -74 -3z"/>
<path d="M10390 7830 c-14 -4 -37 -11 -52 -14 -34 -8 -47 -42 -21 -61 46 -36
133 3 133 60 0 27 -14 30 -60 15z"/>
<path d="M8804 7970 c-53 -21 -67 -148 -23 -204 26 -33 96 -37 122 -8 23 25
34 132 17 171 -17 41 -70 60 -116 41z"/>
<path d="M9175 7945 c-33 -32 -35 -114 -5 -162 17 -29 25 -33 64 -33 37 0 48
5 70 31 21 25 26 41 26 85 0 71 -28 104 -90 104 -30 0 -47 -6 -65 -25z"/>
<path d="M9218 7723 c6 -2 18 -2 25 0 6 3 1 5 -13 5 -14 0 -19 -2 -12 -5z"/>
<path d="M11150 7960 c-25 -25 -28 -113 -5 -165 15 -38 54 -60 86 -50 30 10
53 64 53 127 1 46 -4 61 -23 82 -30 32 -82 35 -111 6z"/>
<path d="M6363 6091 c-64 -25 -73 -38 -44 -62 35 -29 78 -25 112 12 58 63 25
87 -68 50z"/>
<path d="M5208 5983 c7 -3 16 -2 19 1 4 3 -2 6 -13 5 -11 0 -14 -3 -6 -6z"/>
<path d="M5263 5983 c15 -2 39 -2 55 0 15 2 2 4 -28 4 -30 0 -43 -2 -27 -4z"/>
<path d="M5177 5433 c-13 -21 -27 -45 -32 -53 -26 -42 12 -132 61 -144 38 -10
92 13 102 43 15 44 -3 153 -28 173 -38 31 -76 23 -103 -19z"/>
<path d="M6288 5523 c12 -2 30 -2 40 0 9 3 -1 5 -23 4 -22 0 -30 -2 -17 -4z"/>
<path d="M6443 5483 c15 -2 37 -2 50 0 12 2 0 4 -28 4 -27 0 -38 -2 -22 -4z"/>
<path d="M5574 5459 c-29 -15 -44 -51 -44 -107 0 -87 46 -132 118 -115 54 13
75 54 66 132 -3 33 -12 68 -18 77 -15 20 -93 28 -122 13z"/>
<path d="M5957 5450 c-28 -24 -31 -35 -35 -94 -4 -60 -2 -70 19 -92 18 -19 32
-24 74 -24 68 0 100 24 109 81 14 90 -10 129 -94 148 -38 8 -44 7 -73 -19z"/>
<path d="M7180 5314 c-25 -8 -55 -20 -67 -26 -61 -30 9 -80 73 -53 38 16 47
31 42 68 -3 25 -3 25 -48 11z"/>
<path d="M7960 5462 c-41 -33 -45 -148 -7 -194 33 -41 70 -46 101 -14 23 22
26 33 26 100 0 64 -3 78 -22 96 -12 11 -27 20 -34 20 -7 0 -19 2 -27 5 -7 3
-24 -3 -37 -13z"/>
<path d="M7852 5250 c0 -14 2 -19 5 -12 2 6 2 18 0 25 -3 6 -5 1 -5 -13z"/>
<path d="M7852 5118 c-1 -48 1 -89 6 -91 4 -3 6 23 4 56 -5 111 -9 124 -10 35z"/>
<path d="M2222 3895 c0 -16 2 -22 5 -12 2 9 2 23 0 30 -3 6 -5 -1 -5 -18z"/>
<path d="M2603 3883 c9 -2 23 -2 30 0 6 3 -1 5 -18 5 -16 0 -22 -2 -12 -5z"/>
<path d="M3032 3964 c-43 -30 -22 -74 36 -74 45 0 92 34 92 66 0 22 -4 24 -53
24 -31 0 -61 -6 -75 -16z"/>
<path d="M9568 3783 c28 -2 76 -2 105 0 28 2 5 3 -53 3 -58 0 -81 -1 -52 -3z"/>
<path d="M9424 3680 c0 -52 1 -74 3 -47 2 26 2 68 0 95 -2 26 -3 4 -3 -48z"/>
<path d="M9424 3400 c0 -91 2 -128 3 -82 2 45 2 119 0 165 -1 45 -3 8 -3 -83z"/>
<path d="M11143 3620 c0 -36 2 -50 4 -32 2 17 2 47 0 65 -2 17 -4 3 -4 -33z"/>
<path d="M10434 3390 c-28 -4 -60 -13 -72 -19 -28 -15 -29 -56 -3 -71 44 -23
131 -2 145 35 10 28 7 65 -6 64 -7 -1 -36 -5 -64 -9z"/>
<path d="M1943 3355 c-30 -21 -54 -99 -47 -147 5 -29 14 -43 35 -53 40 -21 62
-19 93 10 26 24 33 56 27 135 -5 63 -58 90 -108 55z"/>
<path d="M3018 3383 c6 -2 18 -2 25 0 6 3 1 5 -13 5 -14 0 -19 -2 -12 -5z"/>
<path d="M3118 3383 c7 -3 16 -2 19 1 4 3 -2 6 -13 5 -11 0 -14 -3 -6 -6z"/>
<path d="M3158 3383 c6 -2 18 -2 25 0 6 3 1 5 -13 5 -14 0 -19 -2 -12 -5z"/>
<path d="M3851 3222 c-66 -21 -83 -42 -57 -71 22 -25 37 -26 75 -7 27 14 51
53 51 81 0 18 -1 18 -69 -3z"/>
<path d="M3983 3170 c0 -25 2 -35 4 -22 2 12 2 32 0 45 -2 12 -4 2 -4 -23z"/>
<path d="M2307 3362 c-38 -41 -48 -117 -23 -177 12 -27 21 -34 48 -37 48 -5
88 11 99 39 12 33 11 117 -1 145 -21 44 -94 62 -123 30z"/>
<path d="M2677 3352 c-39 -42 -44 -154 -8 -186 28 -25 92 -29 127 -7 29 18 31
23 33 84 1 55 -2 69 -22 92 -31 37 -104 46 -130 17z"/>
<path d="M4092 3140 c0 -19 2 -27 5 -17 2 9 2 25 0 35 -3 9 -5 1 -5 -18z"/>
<path d="M4617 3350 c-33 -26 -42 -74 -26 -131 7 -24 12 -48 10 -53 -2 -11 19
-36 31 -36 5 0 2 7 -7 16 -9 9 -13 19 -10 22 3 3 11 0 17 -6 16 -16 60 -15 83
2 15 11 20 30 23 84 4 65 2 73 -21 96 -31 31 -65 33 -100 6z"/>
<path d="M8914 2805 c0 -49 1 -71 3 -48 2 23 2 64 0 90 -2 26 -3 8 -3 -42z"/>
<path d="M8942 2865 c0 -16 2 -22 5 -12 2 9 2 23 0 30 -3 6 -5 -1 -5 -18z"/>
<path d="M9025 2625 c-8 -14 -22 -36 -30 -49 -8 -14 -15 -48 -16 -77 -2 -45 1
-55 24 -75 14 -12 23 -24 21 -27 -3 -3 -1 -8 5 -12 6 -3 11 -1 11 6 0 8 4 9
13 1 13 -11 88 -5 84 7 -1 3 9 17 22 30 21 21 23 30 19 101 -4 99 -20 120 -89
120 -41 0 -51 -4 -64 -25z"/>
<path d="M10298 2723 c6 -2 18 -2 25 0 6 3 1 5 -13 5 -14 0 -19 -2 -12 -5z"/>
<path d="M10448 2673 c6 -2 18 -2 25 0 6 3 1 5 -13 5 -14 0 -19 -2 -12 -5z"/>
<path d="M10508 2673 c6 -2 18 -2 25 0 6 3 1 5 -13 5 -14 0 -19 -2 -12 -5z"/>
<path d="M10473 2333 c9 -2 25 -2 35 0 9 3 1 5 -18 5 -19 0 -27 -2 -17 -5z"/>
<path d="M9476 2639 c-14 -11 -33 -34 -41 -49 -29 -56 -14 -153 28 -188 21
-18 135 -4 159 20 14 14 18 33 18 91 0 83 -14 111 -66 133 -46 19 -67 18 -98
-7z"/>
<path d="M11300 2481 c-56 -11 -82 -29 -78 -54 2 -14 11 -23 26 -25 12 -2 22
-8 22 -13 0 -27 99 1 107 31 3 11 9 20 13 20 5 0 7 8 5 18 -2 9 -4 20 -4 25
-1 8 -42 8 -91 -2z"/>
<path d="M11461 2384 c0 -11 3 -14 6 -6 3 7 2 16 -1 19 -3 4 -6 -2 -5 -13z"/>
<path d="M11971 2644 c0 -11 3 -14 6 -6 3 7 2 16 -1 19 -3 4 -6 -2 -5 -13z"/>
<path d="M12231 2639 c-31 -29 -41 -61 -41 -129 0 -84 13 -107 64 -112 56 -6
90 13 110 62 20 51 20 79 0 129 -27 68 -89 91 -133 50z"/>
<path d="M12113 2370 c0 -36 2 -50 4 -32 2 17 2 47 0 65 -2 17 -4 3 -4 -33z"/>
<path d="M12143 2305 c0 -22 2 -30 4 -17 2 12 2 30 0 40 -3 9 -5 -1 -4 -23z"/>
<path d="M12142 2210 c0 -19 2 -27 5 -17 2 9 2 25 0 35 -3 9 -5 1 -5 -18z"/>
<path d="M12794 2534 c-18 -14 -18 -14 6 -3 31 14 36 19 24 19 -6 0 -19 -7
-30 -16z"/>
<path d="M9946 2648 c-11 -6 -30 -23 -42 -37 -51 -57 -20 -202 46 -216 34 -7
119 9 136 27 19 18 20 124 3 171 -17 49 -100 80 -143 55z"/>
<path d="M4231 1666 c-58 -15 -74 -40 -43 -66 17 -14 32 -17 60 -13 53 8 63
16 77 57 l13 36 -32 -1 c-17 -1 -51 -6 -75 -13z"/>
<path d="M3096 1038 c-34 -25 -56 -74 -56 -122 0 -69 83 -120 134 -83 42 30
38 175 -5 208 -30 23 -38 23 -73 -3z"/>
<path d="M3055 820 c3 -4 14 -10 25 -13 11 -3 18 -2 15 3 -3 4 -14 10 -25 13
-11 3 -18 2 -15 -3z"/>
<path d="M4138 1053 c7 -3 16 -2 19 1 4 3 -2 6 -13 5 -11 0 -14 -3 -6 -6z"/>
<path d="M4963 888 c-24 -11 -37 -48 -23 -62 11 -11 54 -12 92 -3 25 7 54 57
41 71 -10 10 -86 6 -110 -6z"/>
<path d="M3435 1015 c-21 -20 -25 -34 -25 -87 0 -87 16 -108 81 -108 72 0 99
29 99 107 0 64 -3 71 -40 96 -36 25 -86 22 -115 -8z"/>
<path d="M3828 1017 c-33 -31 -41 -59 -33 -113 11 -79 86 -108 155 -61 67 44
63 153 -7 182 -50 21 -86 19 -115 -8z"/>
<path d="M5270 1049 c0 -5 5 -7 10 -4 6 3 10 8 10 11 0 2 -4 4 -10 4 -5 0 -10
-5 -10 -11z"/>
<path d="M5745 1070 c-3 -6 1 -7 9 -4 18 7 21 14 7 14 -6 0 -13 -4 -16 -10z"/>
<path d="M5763 1033 c-26 -5 -38 -61 -28 -125 12 -70 20 -78 74 -78 l48 0 13
45 c15 54 8 119 -16 146 -16 18 -42 22 -91 12z"/>
<path d="M5712 890 c0 -14 2 -19 5 -12 2 6 2 18 0 25 -3 6 -5 1 -5 -13z"/>
</g>
</svg>
